# Blender v2.80 (sub 55) OBJ File: 'helmet.blend'
# www.blender.org
o box_Cube.001
v -3.081954 -5.970325 9.386121
v -28.086760 -5.970325 -29.146839
v -17.228317 -5.970325 -36.193100
v 7.776489 -5.970325 2.339860
v -3.081954 3.282307 9.386121
v -28.086760 3.282307 -29.146839
v -17.228317 3.282307 -36.193100
v 7.776489 3.282307 2.339860
vn 0.8389 0.0000 -0.5444
vn 0.5444 0.0000 0.8389
vn -0.8389 0.0000 0.5444
vn 0.0000 1.0000 0.0000
vn 0.0000 -1.0000 0.0000
s off
f 1//1 6//1 5//1
f 2//2 7//2 6//2
f 3//3 8//3 7//3
f 4//4 2//4 1//4
f 5//5 7//5 8//5
f 1//1 2//1 6//1
f 2//2 3//2 7//2
f 3//3 4//3 8//3
f 4//4 3//4 2//4
f 5//5 6//5 7//5
